<svg xmlns="http://www.w3.org/2000/svg" viewBox="0 0 880 470" width="880" height="470" font-family="Noto Sans CJK JP, Hiragino Sans, Yu Gothic, Meiryo, sans-serif">
<rect width="880" height="470" fill="#ffffff"/>
<text x="30" y="30" font-size="17" fill="#111">中心をずらすと窓が細くなる ── 残渣の平面で見たところ</text>
<text x="30" y="50" font-size="12" fill="#555">ずらし＝クラスタ間の一歩（実長 8.057480／残渣 0.277515）</text>
<rect x="30" y="60" width="400" height="380" fill="none" stroke="#eeeeee"/>
<polygon points="146.31,276.38 217.38,374.20 332.38,336.84 332.38,215.92 217.38,178.56" fill="#2f6fa8" fill-opacity="0.10" stroke="#2f6fa8" stroke-width="1.6"/>
<polygon points="107.98,223.62 179.05,321.44 294.05,284.08 294.05,163.16 179.05,125.80" fill="#c8632f" fill-opacity="0.10" stroke="#c8632f" stroke-width="1.6" stroke-dasharray="5 3"/>
<polygon points="146.31,276.38 179.05,321.44 294.05,284.08 294.05,203.47 217.38,178.56" fill="#4f9d69" fill-opacity="0.45" stroke="#3a7a51" stroke-width="2"/>
<line x1="249.2" y1="276.4" x2="210.8" y2="223.6" stroke="#333" stroke-width="1.2"/>
<circle cx="249.2" cy="276.4" r="3" fill="#333"/>
<circle cx="210.8" cy="223.6" r="3" fill="#333"/>
<text x="230" y="242" font-size="12" text-anchor="middle" fill="#333">σ(d)</text>
<text x="40" y="394" font-size="12.5" fill="#2f6fa8">■ 窓 W（正五角形）</text>
<text x="40" y="412" font-size="12.5" fill="#c8632f">■ ずらした窓 W+σ(d)</text>
<text x="40" y="430" font-size="12.5" fill="#3a7a51">■ 新しい窓（重なり）面積比 0.5483</text>
<rect x="470" y="60" width="380" height="380" fill="none" stroke="#eeeeee"/>
<polygon points="513.52,297.59 569.47,374.61 660.00,404.02 750.53,374.61 806.48,297.59 806.48,202.41 750.53,125.39 660.00,95.98 569.47,125.39 513.52,202.41" fill="#7a4fa3" fill-opacity="0.08" stroke="#7a4fa3" stroke-width="1.6"/>
<polygon points="579.03,250.00 634.98,327.01 725.51,297.59 725.51,202.41 634.98,172.99" fill="none" stroke="#2f6fa8" stroke-width="1.2" stroke-dasharray="4 3"/>
<circle cx="769.2" cy="234.1" r="1.7" fill="#3a7a51"/>
<circle cx="562.3" cy="166.9" r="1.7" fill="#3a7a51"/>
<circle cx="562.3" cy="384.4" r="1.7" fill="#cfcfcf"/>
<circle cx="690.2" cy="74.1" r="1.7" fill="#cfcfcf"/>
<circle cx="690.2" cy="291.5" r="1.7" fill="#3a7a51"/>
<circle cx="483.3" cy="224.3" r="1.7" fill="#cfcfcf"/>
<circle cx="483.3" cy="441.8" r="1.7" fill="#cfcfcf"/>
<circle cx="769.2" cy="368.5" r="1.7" fill="#cfcfcf"/>
<circle cx="562.3" cy="83.9" r="1.7" fill="#cfcfcf"/>
<circle cx="562.3" cy="301.3" r="1.7" fill="#3a7a51"/>
<circle cx="690.2" cy="208.5" r="1.7" fill="#3a7a51"/>
<circle cx="690.2" cy="425.9" r="1.7" fill="#cfcfcf"/>
<circle cx="483.3" cy="141.3" r="1.7" fill="#cfcfcf"/>
<circle cx="483.3" cy="358.7" r="1.7" fill="#cfcfcf"/>
<circle cx="818.0" cy="115.6" r="1.7" fill="#cfcfcf"/>
<circle cx="818.0" cy="333.1" r="1.7" fill="#cfcfcf"/>
<circle cx="611.2" cy="265.9" r="1.7" fill="#3a7a51"/>
<circle cx="562.3" cy="218.3" r="1.7" fill="#3a7a51"/>
<circle cx="562.3" cy="435.8" r="1.7" fill="#cfcfcf"/>
<circle cx="690.2" cy="125.4" r="1.7" fill="#3a7a51"/>
<circle cx="690.2" cy="342.9" r="1.7" fill="#3a7a51"/>
<circle cx="483.3" cy="58.2" r="1.7" fill="#cfcfcf"/>
<circle cx="483.3" cy="275.7" r="1.7" fill="#cfcfcf"/>
<circle cx="818.0" cy="250.0" r="1.7" fill="#cfcfcf"/>
<circle cx="611.2" cy="182.8" r="1.7" fill="#3a7a51"/>
<circle cx="611.2" cy="400.3" r="1.7" fill="#cfcfcf"/>
<circle cx="739.0" cy="89.9" r="1.7" fill="#cfcfcf"/>
<circle cx="690.2" cy="259.8" r="1.7" fill="#3a7a51"/>
<circle cx="483.3" cy="192.6" r="1.7" fill="#cfcfcf"/>
<circle cx="483.3" cy="410.1" r="1.7" fill="#cfcfcf"/>
<circle cx="818.0" cy="166.9" r="1.7" fill="#cfcfcf"/>
<circle cx="818.0" cy="384.4" r="1.7" fill="#cfcfcf"/>
<circle cx="611.2" cy="99.7" r="1.7" fill="#cfcfcf"/>
<circle cx="611.2" cy="317.2" r="1.7" fill="#3a7a51"/>
<circle cx="739.0" cy="224.3" r="1.7" fill="#3a7a51"/>
<circle cx="739.0" cy="441.8" r="1.7" fill="#cfcfcf"/>
<circle cx="532.2" cy="157.1" r="1.7" fill="#cfcfcf"/>
<circle cx="532.2" cy="374.6" r="1.7" fill="#cfcfcf"/>
<circle cx="483.3" cy="109.5" r="1.7" fill="#cfcfcf"/>
<circle cx="483.3" cy="327.0" r="1.7" fill="#cfcfcf"/>
<circle cx="818.0" cy="83.9" r="1.7" fill="#cfcfcf"/>
<circle cx="818.0" cy="301.3" r="1.7" fill="#cfcfcf"/>
<circle cx="611.2" cy="234.1" r="1.7" fill="#3a7a51"/>
<circle cx="739.0" cy="141.3" r="1.7" fill="#3a7a51"/>
<circle cx="739.0" cy="358.7" r="1.7" fill="#3a7a51"/>
<circle cx="532.2" cy="74.1" r="1.7" fill="#cfcfcf"/>
<circle cx="532.2" cy="291.5" r="1.7" fill="#3a7a51"/>
<circle cx="660.0" cy="198.7" r="1.7" fill="#3a7a51"/>
<circle cx="660.0" cy="416.1" r="1.7" fill="#cfcfcf"/>
<circle cx="818.0" cy="218.3" r="1.7" fill="#cfcfcf"/>
<circle cx="818.0" cy="435.8" r="1.7" fill="#cfcfcf"/>
<circle cx="611.2" cy="151.1" r="1.7" fill="#3a7a51"/>
<circle cx="611.2" cy="368.5" r="1.7" fill="#3a7a51"/>
<circle cx="739.0" cy="58.2" r="1.7" fill="#cfcfcf"/>
<circle cx="739.0" cy="275.7" r="1.7" fill="#3a7a51"/>
<circle cx="532.2" cy="208.5" r="1.7" fill="#3a7a51"/>
<circle cx="532.2" cy="425.9" r="1.7" fill="#cfcfcf"/>
<circle cx="660.0" cy="115.6" r="1.7" fill="#3a7a51"/>
<circle cx="660.0" cy="333.1" r="1.7" fill="#3a7a51"/>
<circle cx="787.8" cy="240.2" r="1.7" fill="#3a7a51"/>
<circle cx="581.0" cy="173.0" r="1.7" fill="#3a7a51"/>
<circle cx="739.0" cy="192.6" r="1.7" fill="#3a7a51"/>
<circle cx="739.0" cy="410.1" r="1.7" fill="#cfcfcf"/>
<circle cx="532.2" cy="125.4" r="1.7" fill="#cfcfcf"/>
<circle cx="532.2" cy="342.9" r="1.7" fill="#cfcfcf"/>
<circle cx="787.8" cy="157.1" r="1.7" fill="#cfcfcf"/>
<circle cx="787.8" cy="374.6" r="1.7" fill="#cfcfcf"/>
<circle cx="581.0" cy="89.9" r="1.7" fill="#cfcfcf"/>
<circle cx="581.0" cy="307.4" r="1.7" fill="#3a7a51"/>
<circle cx="739.0" cy="327.0" r="1.7" fill="#3a7a51"/>
<circle cx="532.2" cy="259.8" r="1.7" fill="#3a7a51"/>
<circle cx="660.0" cy="166.9" r="1.7" fill="#3a7a51"/>
<circle cx="660.0" cy="384.4" r="1.7" fill="#3a7a51"/>
<circle cx="787.8" cy="74.1" r="1.7" fill="#cfcfcf"/>
<circle cx="787.8" cy="291.5" r="1.7" fill="#3a7a51"/>
<circle cx="581.0" cy="224.3" r="1.7" fill="#3a7a51"/>
<circle cx="581.0" cy="441.8" r="1.7" fill="#cfcfcf"/>
<circle cx="708.8" cy="131.5" r="1.7" fill="#3a7a51"/>
<circle cx="708.8" cy="348.9" r="1.7" fill="#3a7a51"/>
<circle cx="502.0" cy="64.2" r="1.7" fill="#cfcfcf"/>
<circle cx="502.0" cy="281.7" r="1.7" fill="#cfcfcf"/>
<circle cx="660.0" cy="83.9" r="1.7" fill="#cfcfcf"/>
<circle cx="660.0" cy="301.3" r="1.7" fill="#3a7a51"/>
<circle cx="787.8" cy="208.5" r="1.7" fill="#3a7a51"/>
<circle cx="787.8" cy="425.9" r="1.7" fill="#cfcfcf"/>
<circle cx="581.0" cy="141.3" r="1.7" fill="#3a7a51"/>
<circle cx="581.0" cy="358.7" r="1.7" fill="#3a7a51"/>
<circle cx="708.8" cy="265.9" r="1.7" fill="#3a7a51"/>
<circle cx="502.0" cy="198.7" r="1.7" fill="#cfcfcf"/>
<circle cx="502.0" cy="416.1" r="1.7" fill="#cfcfcf"/>
<circle cx="836.7" cy="173.0" r="1.7" fill="#cfcfcf"/>
<circle cx="836.7" cy="390.5" r="1.7" fill="#cfcfcf"/>
<circle cx="787.8" cy="125.4" r="1.7" fill="#cfcfcf"/>
<circle cx="787.8" cy="342.9" r="1.7" fill="#cfcfcf"/>
<circle cx="581.0" cy="58.2" r="1.7" fill="#cfcfcf"/>
<circle cx="581.0" cy="275.7" r="1.7" fill="#3a7a51"/>
<circle cx="708.8" cy="182.8" r="1.7" fill="#3a7a51"/>
<circle cx="708.8" cy="400.3" r="1.7" fill="#cfcfcf"/>
<circle cx="502.0" cy="115.6" r="1.7" fill="#cfcfcf"/>
<circle cx="502.0" cy="333.1" r="1.7" fill="#cfcfcf"/>
<circle cx="836.7" cy="89.9" r="1.7" fill="#cfcfcf"/>
<circle cx="836.7" cy="307.4" r="1.7" fill="#cfcfcf"/>
<circle cx="629.8" cy="240.2" r="1.7" fill="#3a7a51"/>
<circle cx="581.0" cy="410.1" r="1.7" fill="#cfcfcf"/>
<circle cx="708.8" cy="99.7" r="1.7" fill="#cfcfcf"/>
<circle cx="708.8" cy="317.2" r="1.7" fill="#3a7a51"/>
<circle cx="502.0" cy="250.0" r="1.7" fill="#cfcfcf"/>
<circle cx="836.7" cy="224.3" r="1.7" fill="#cfcfcf"/>
<circle cx="836.7" cy="441.8" r="1.7" fill="#cfcfcf"/>
<circle cx="629.8" cy="157.1" r="1.7" fill="#3a7a51"/>
<circle cx="629.8" cy="374.6" r="1.7" fill="#3a7a51"/>
<circle cx="757.7" cy="64.2" r="1.7" fill="#cfcfcf"/>
<circle cx="757.7" cy="281.7" r="1.7" fill="#3a7a51"/>
<circle cx="708.8" cy="234.1" r="1.7" fill="#3a7a51"/>
<circle cx="502.0" cy="166.9" r="1.7" fill="#cfcfcf"/>
<circle cx="502.0" cy="384.4" r="1.7" fill="#cfcfcf"/>
<circle cx="836.7" cy="141.3" r="1.7" fill="#cfcfcf"/>
<circle cx="836.7" cy="358.7" r="1.7" fill="#cfcfcf"/>
<circle cx="629.8" cy="74.1" r="1.7" fill="#cfcfcf"/>
<circle cx="629.8" cy="291.5" r="1.7" fill="#3a7a51"/>
<circle cx="757.7" cy="198.7" r="1.7" fill="#3a7a51"/>
<circle cx="757.7" cy="416.1" r="1.7" fill="#cfcfcf"/>
<circle cx="550.8" cy="131.5" r="1.7" fill="#cfcfcf"/>
<circle cx="836.7" cy="58.2" r="1.7" fill="#cfcfcf"/>
<circle cx="836.7" cy="275.7" r="1.7" fill="#cfcfcf"/>
<circle cx="629.8" cy="208.5" r="1.7" fill="#3a7a51"/>
<circle cx="629.8" cy="425.9" r="1.7" fill="#cfcfcf"/>
<circle cx="757.7" cy="115.6" r="1.7" fill="#cfcfcf"/>
<circle cx="757.7" cy="333.1" r="1.7" fill="#3a7a51"/>
<circle cx="550.8" cy="265.9" r="1.7" fill="#3a7a51"/>
<text x="480" y="412" font-size="12.5" fill="#7a4fa3">■ W+(−W)（正十角形）── この中なら窓が開く</text>
<text x="480" y="430" font-size="12.5" fill="#555">点＝ずらしの残渣 σ(d)　開く 54 ／ 閉じる 76</text>
</svg>